<?xml version="1.0" standalone="no"?><!DOCTYPE svg PUBLIC "-//W3C//DTD SVG 1.1//EN" "http://www.w3.org/Graphics/SVG/1.1/DTD/svg11.dtd"><svg t="1538911837127" class="icon" style="" viewBox="0 0 1024 1024" version="1.1" xmlns="http://www.w3.org/2000/svg" p-id="4166" xmlns:xlink="http://www.w3.org/1999/xlink" width="16" height="16"><defs><style type="text/css"></style></defs><path d="M872.32 938.88c-8.32 0-17.28-3.2-23.68-10.24l-222.72-240c-5.76-6.4-8.96-14.72-8.32-23.04 0.64-8.32 4.48-16.64 10.24-22.4 9.6-8.32 18.56-17.92 26.88-27.52 83.2-99.2 82.56-248.32-1.28-346.88-49.92-59.52-122.88-94.08-199.68-96-76.8-1.92-151.04 29.44-203.52 85.76-94.08 101.12-96 260.48-3.84 362.88 52.48 58.88 127.36 91.52 206.08 90.24h0.64c17.28 0 32 14.08 32 31.36 0 17.92-14.08 32-31.36 32.64-97.28 1.92-189.44-39.04-254.72-112-113.92-126.08-112-323.2 4.48-448 64.64-69.76 156.16-108.8 251.52-106.88 94.72 1.92 184.96 44.8 247.04 117.76 104.32 122.24 104.96 306.56 1.92 429.44-3.2 3.84-6.4 7.68-9.6 10.88l201.6 217.6c12.16 12.8 11.52 33.28-1.92 45.44-5.76 6.4-14.08 8.96-21.76 8.96z" fill="#515151" p-id="4167"></path><path d="M586.24 480h-48c-17.92 0-32-14.08-32-32s14.08-32 32-32h48c17.92 0 32 14.08 32 32s-14.72 32-32 32zM444.8 480H305.92c-17.92 0-32-14.08-32-32s14.08-32 32-32h138.88c17.92 0 32 14.08 32 32s-14.08 32-32 32z" fill="#515151" p-id="4168"></path><path d="M446.08 620.16c-17.92 0-32-14.08-32-32V307.84c0-17.92 14.08-32 32-32s32 14.08 32 32v280.32c0 17.28-14.08 32-32 32z" fill="#515151" p-id="4169"></path></svg>